<?xml version="1.0" encoding="UTF-8"?><svg id="a" xmlns="http://www.w3.org/2000/svg" viewBox="0 0 408.81 406.54"><circle cx="202.5" cy="204.04" r="200" style="fill:#c0b9a3; stroke:#fff; stroke-miterlimit:10; stroke-width:5px;"/><path d="M402.27,215.79l-84.57-84.57-134.83,10.43-3.33,55.52-15.54,5.53-45.76-23.52-32.16,51.25,27.29,27.29,.35,18.42,126.62,126.62c89.36-17.11,157.6-93.68,161.94-186.96Z" style="opacity:.14;"/><g><rect x="175.67" y="137.3" width="136.64" height="66.34" style="fill:#fff;"/><g><path d="M173.05,256.52v1.15h37.56v-1.15c0-3.38-2.78-6.19-6.13-6.19h-25.37c-3.35,0-6.06,2.81-6.06,6.19Z" style="fill:#2b3a49;"/><path d="M224.93,256.52v1.15h37.56v-1.15c0-3.38-2.71-6.19-6.13-6.19h-25.37c-3.35,0-6.06,2.81-6.06,6.19Z" style="fill:#2b3a49;"/><path d="M276.81,256.52v1.15h37.56v-1.15c0-3.38-2.71-6.19-6.13-6.19h-25.3c-3.42,0-6.13,2.81-6.13,6.19Z" style="fill:#2b3a49;"/><path d="M176.25,191.45v-52.18h134.9v63.63H180.81c-1.07,2.02-2.99,3.53-5.34,4.03l-3.99,.86c1.14,.94,2.57,1.51,4.13,1.51h136.19c3.35,0,6.13-2.59,6.13-5.83v-64.78c0-3.24-2.78-5.83-6.13-5.83H175.61c-3.35,0-6.13,2.59-6.13,5.83v53.12l2.71-.58c1.43-.29,2.78-.22,4.06,.22Z" style="fill:#141515;"/><path d="M295.55,249.25c7.7,0,13.9-6.33,13.9-14.04s-6.2-14.04-13.9-14.04-13.83,6.26-13.83,14.04,6.2,14.04,13.83,14.04Z" style="fill:#d8d8da;"/><path d="M243.67,249.25c7.7,0,13.9-6.33,13.9-14.04s-6.2-14.04-13.9-14.04-13.83,6.26-13.83,14.04,6.2,14.04,13.83,14.04Z" style="fill:#d8d8da;"/><path d="M262.91,259.83h-38.41c-2.57,0-4.63,2.16-4.63,4.75v16.63h47.68v-16.63c0-2.59-2.14-4.75-4.63-4.75Z" style="fill:#141515;"/><path d="M191.79,249.25c7.7,0,13.9-6.33,13.9-14.04s-6.2-14.04-13.9-14.04-13.83,6.26-13.83,14.04,6.2,14.04,13.83,14.04Z" style="fill:#f6f8f5;"/><path d="M314.79,259.83h-38.41c-2.57,0-4.63,2.16-4.63,4.75v16.63h47.68v-16.63c0-2.59-2.07-4.75-4.63-4.75Z" style="fill:#141515;"/><path d="M211.03,259.83h-38.41c-2.57,0-4.63,2.16-4.63,4.75v16.63h47.68v-16.63c0-2.59-2.14-4.75-4.63-4.75Z" style="fill:#141515;"/><path d="M179.53,197.86c-.64-3.17-3.78-5.18-6.91-4.53l-12.26,2.74-14.75-21.67c-.64-2.38-2.85-4.25-5.42-4.25h-10.97c8.62-.36,15.46-7.49,15.46-16.27s-7.2-16.27-16.11-16.27-16.11,7.34-16.11,16.27,6.84,15.91,15.39,16.27h-12.04c-.43,0-.86,.07-1.28,.22-2.42-.36-4.92,.86-6.06,3.24l-22.31,46.86c-1.43,2.95-.21,6.41,2.71,7.85,2.85,1.37,6.34,.14,7.77-2.73l13.61-28.65v76.94c0,4.03,3.28,7.34,7.34,7.34s7.27-3.31,7.27-7.34v-43.69h6.34v43.69c0,4.03,3.28,7.34,7.27,7.34s7.27-3.31,7.27-7.34v-78.53l7.27,10.58c1.35,2.02,3.71,2.88,5.99,2.45l15.96-3.53c3.21-.65,5.2-3.81,4.56-6.98Z" style="fill:#d8d8da;"/><path d="M250.37,162.45c.78-.36,1.07-1.3,.71-2.09l-.07-.14c-.36-.72-1.28-1.08-2.07-.72l-69.7,33.69c.86,.65,1.57,1.58,1.92,2.66l69.2-33.4Z" style="fill:#2b3a49;"/></g></g></svg>