<svg xmlns="http://www.w3.org/2000/svg" viewBox="0 0 329 334"><circle cx="165.71" cy="166.82" r="162.5" style="fill:#824e6d"/><g style="opacity:0.11"><path d="M328.22,185.83,208.39,66H96V268.35l60.86,60.86c3.29.2,6.61.31,9.95.31A162.5,162.5,0,0,0,328.22,185.83Z"/></g><polygon points="207.29 65.79 96.41 65.79 96.41 259.83 235.01 259.83 235.01 93.51 207.29 65.79" style="fill:#fff"/><polygon points="235.01 93.51 207.29 93.51 207.29 65.79 235.01 93.51" style="fill:#d8d8da"/><rect x="117.2" y="131.63" width="90.09" height="6.93" style="fill:#242c3c"/><rect x="117.2" y="173.2" width="83.16" height="6.93" style="fill:#242c3c"/><rect x="117.2" y="145.48" width="97.02" height="6.93" style="fill:#242c3c"/><rect x="117.2" y="159.34" width="62.37" height="6.93" style="fill:#242c3c"/><path d="M181.38,232.18a6.34,6.34,0,0,0-.65,2.17,2.19,2.19,0,0,0,3.18,2.44,34.74,34.74,0,0,0,6.5-4.11l-3-3a17.45,17.45,0,0,0-1.09,2.9,2.2,2.2,0,0,0,2.66,2.66,41.56,41.56,0,0,0,4.34-1.3c1.21-.32-.34-2.33.58-.56a2.15,2.15,0,0,0,1.87,1.07c5.27-.22,10.17-2.22,15.38-2.82,2.74-.31,2.77-4.64,0-4.33-5.19.6-10.16,2.6-15.38,2.82l1.87,1.07c-2.33-4.45-6.06-.71-9.81-.13l2.67,2.67a11.51,11.51,0,0,1,.65-1.87c.85-1.76-1-4.35-3-3a34.67,34.67,0,0,1-6.49,4.11l3.18,2.45a6.19,6.19,0,0,1,.65-2.17c1.05-2.59-3.14-3.7-4.18-1.15Z" style="fill:#242c3c"/><rect x="179.57" y="238.17" width="34.65" height="1.73" style="fill:#242c3c"/><path d="M185.86,232c3-1.65,5.66-5,9.38-4.33,2.73.49,3.89-3.68,1.15-4.18a10.46,10.46,0,0,0-6.81.87c-2.12,1-3.85,2.76-5.91,3.9-2.44,1.35-.25,5.09,2.19,3.74Z" style="fill:#242c3c"/><path d="M145.67,236a2.47,2.47,0,0,1,0-2.33l.43-.67a2.84,2.84,0,0,0-1.1-4.1l-.71-.36a2.49,2.49,0,0,1-1.16-2l0-.79a2.86,2.86,0,0,0-2.86-3h-.15l-.78,0h-.07a2.48,2.48,0,0,1-1.95-1.17l-.37-.7a2.84,2.84,0,0,0-2.53-1.57,2.88,2.88,0,0,0-1.57.47l-.66.42a2.21,2.21,0,0,1-1.17.3,2.17,2.17,0,0,1-1.16-.3l-.67-.42a2.83,2.83,0,0,0-4.1,1.1l-.36.7a2.49,2.49,0,0,1-2,1.17h-.06l-.79,0h-.14a2.84,2.84,0,0,0-2.86,3l0,.79a2.47,2.47,0,0,1-1.16,2l-.7.36A2.84,2.84,0,0,0,116,233l.42.67a2.47,2.47,0,0,1,0,2.33l-.42.66a2.84,2.84,0,0,0,1.1,4.1l.7.37a2.44,2.44,0,0,1,1.16,2l0,.79a2.84,2.84,0,0,0,2.86,3H122l.79,0h.06a2.47,2.47,0,0,1,2,1.17l.36.7a2.86,2.86,0,0,0,2.53,1.56,2.93,2.93,0,0,0,1.57-.46l.67-.43a2.17,2.17,0,0,1,1.16-.29,2.2,2.2,0,0,1,1.17.29l.66.43a3,3,0,0,0,1.57.46,2.85,2.85,0,0,0,2.53-1.56l.37-.7a2.45,2.45,0,0,1,1.95-1.17h.07l.78,0h.15a2.86,2.86,0,0,0,2.86-3l0-.79a2.46,2.46,0,0,1,1.16-2l.71-.37a2.84,2.84,0,0,0,1.1-4.1Z" style="fill:#df5444"/><path d="M137.36,248.07l-.37.7a2.85,2.85,0,0,1-2.53,1.56,3,3,0,0,1-1.57-.46l-.66-.43a2.2,2.2,0,0,0-1.17-.29,2.17,2.17,0,0,0-1.16.29l-.67.43a2.93,2.93,0,0,1-1.57.46,2.86,2.86,0,0,1-2.53-1.56l-.36-.7a1.75,1.75,0,0,0-.28-.39v20.16l6.57-5.5,6.52,3.82V247.75A1.31,1.31,0,0,0,137.36,248.07Z" style="fill:#242c3c"/><path d="M141.42,234.83a10.36,10.36,0,1,1-10.36-10.35A10.36,10.36,0,0,1,141.42,234.83Z" style="fill:#fff"/><circle cx="169" cy="174" r="159.5" style="fill:none;stroke:#000;stroke-miterlimit:10"/><circle cx="159" cy="159" r="158.5" style="fill:none;stroke:#000;stroke-miterlimit:10"/></svg>