<svg xmlns="http://www.w3.org/2000/svg" viewBox="0 0 329 334"><circle cx="165.71" cy="166.82" r="162.5" style="fill:#4e6c82"/><circle cx="169" cy="174" r="159.5" style="fill:none;stroke:#000;stroke-miterlimit:10"/><circle cx="159" cy="159" r="158.5" style="fill:none;stroke:#000;stroke-miterlimit:10"/><g style="opacity:0.15"><path d="M326.49,187.67,246,108,117,250l68.72,77.62A162.58,162.58,0,0,0,326.49,187.67Z"/></g><path d="M264.79,178.32a99.85,99.85,0,0,0,0-22.22h-25.2a74.68,74.68,0,0,0-4.38-16.37L257,127.13a99.84,99.84,0,0,0-11.12-19.24L224.08,120.5a74.87,74.87,0,0,0-12-12L224.72,86.7a99.59,99.59,0,0,0-19.24-11.13L192.88,97.4A73.87,73.87,0,0,0,176.52,93V67.82a101.48,101.48,0,0,0-22.22,0V93a74.11,74.11,0,0,0-16.37,4.37l-12.6-21.83A99.89,99.89,0,0,0,106.09,86.7l12.61,21.83a75.29,75.29,0,0,0-12,12L84.9,107.89a99.89,99.89,0,0,0-11.13,19.24l21.83,12.6a74.11,74.11,0,0,0-4.37,16.37H66a101.48,101.48,0,0,0,0,22.22H91.23a74,74,0,0,0,4.37,16.36l-21.83,12.6A99.59,99.59,0,0,0,84.9,226.52l21.83-12.61a75.35,75.35,0,0,0,12,12l-12.61,21.83a100.41,100.41,0,0,0,19.24,11.13L137.93,237a75.22,75.22,0,0,0,16.37,4.37v25.2a99.85,99.85,0,0,0,22.22,0v-25.2A75.13,75.13,0,0,0,192.88,237l12.6,21.83a100.11,100.11,0,0,0,19.24-11.13l-12.61-21.84a74.46,74.46,0,0,0,12-12l21.84,12.61A99.76,99.76,0,0,0,257,207.29l-21.83-12.61a74.44,74.44,0,0,0,4.38-16.36Z" style="fill:#242c3c"/><circle cx="165.41" cy="167.21" r="44.44" style="fill:#fff"/><circle cx="165.41" cy="167.21" r="19.43" style="fill:#f0b14e"/></svg>