<?xml version="1.0" encoding="utf-8"?>
<!-- Generator: Adobe Illustrator 25.4.1, SVG Export Plug-In . SVG Version: 6.00 Build 0)  -->
<svg version="1.1" id="Layer_1" xmlns="http://www.w3.org/2000/svg" xmlns:xlink="http://www.w3.org/1999/xlink" x="0px" y="0px"
	 viewBox="0 0 347.56 327.93" style="enable-background:new 0 0 347.56 327.93;" xml:space="preserve">
<style type="text/css">
	.st0{fill:#905796;}
	.st1{fill:none;stroke:#FFFFFF;stroke-width:0.5;stroke-miterlimit:10;}
	.st2{opacity:0.15;}
	.st3{fill:#D8D8DA;}
	.st4{fill:#F6F8F5;}
	.st5{fill:#242C3C;}
	.st6{fill:#2B3A49;}
	.st7{fill:none;}
	.st8{fill:none;stroke:#D9D4C5;stroke-width:0.5;stroke-miterlimit:10;}
</style>
<circle class="st0" cx="177.59" cy="165.43" r="162.5"/>
<circle class="st1" cx="187.91" cy="166.97" r="159.4"/>
<g class="st2">
	<path d="M327.27,228.8l-118.2-118.2l-16.22-7.5l-11.31-11.84l-5.6,1.65L149.5,67.12l-13.84,107.29l16.38,16.38l-29.08-0.14
		l0.14,5.93l49.84,50.26l-62.15,16.77l64.29,64.29c0.84,0.01,1.67,0.03,2.52,0.03C244.86,327.93,302.57,287.06,327.27,228.8z"/>
</g>
<g>
	<g>
		<path class="st3" d="M138.46,65.43c-1.42,0-2.57,1.16-2.57,2.57v19.09c0,1.42,1.16,2.57,2.57,2.57h5.01V65.43H138.46z"/>
	</g>
	<g>
		<path class="st4" d="M148.47,65.43h-5.01v24.24h5.01c1.42,0,2.57-1.16,2.57-2.57V68C151.04,66.58,149.89,65.43,148.47,65.43z"/>
	</g>
	<g>
		<path class="st4" d="M151,134.97h-7.53v41.29H151c1.42,0,2.57-1.16,2.57-2.57v-36.14C153.57,136.13,152.41,134.97,151,134.97z"/>
	</g>
	<g>
		<path class="st3" d="M135.93,134.97c-1.42,0-2.57,1.16-2.57,2.57v36.14c0,1.42,1.16,2.57,2.57,2.57h7.53v-41.29H135.93z"/>
	</g>
	<g>
		<rect x="163.87" y="196.79" class="st4" width="27.45" height="27.45"/>
	</g>
	<g>
		<path class="st5" d="M191.32,224.25c0,7.58-6.15,13.73-13.73,13.73c-7.58,0-13.73-6.15-13.73-13.73c0-7.58,6.15-13.73,13.73-13.73
			C185.17,210.52,191.32,216.67,191.32,224.25z"/>
	</g>
	<g>
		<path class="st5" d="M191.32,224.25c0,11.38,12.28,20.59,27.45,20.59v0c15.17,0,27.45,9.21,27.45,20.59l-137.26,0
			c0-7.59,7.64-13.73,27.45-13.73c30.35,0,27.45-6.86,27.45-27.45H191.32z"/>
	</g>
	<g>
		<path class="st6" d="M181.02,224.25c0,1.89-1.54,3.43-3.43,3.43c-1.9,0-3.43-1.54-3.43-3.43c0-1.9,1.54-3.43,3.43-3.43
			C179.49,220.81,181.02,222.35,181.02,224.25z"/>
	</g>
	<g>
		<path class="st7" d="M211.91,155.61c0-9.17-3.57-17.78-10.05-24.27c-6.48-6.48-15.1-10.05-24.27-10.05v68.63
			c9.16,0,17.78-3.57,24.27-10.05C208.34,173.4,211.91,164.78,211.91,155.61z"/>
	</g>
	<g>
		<path class="st4" d="M177.59,100.71v13.73c11,0,21.34,4.28,29.12,12.06c7.78,7.78,12.06,18.12,12.06,29.12
			c0,11-4.28,21.34-12.06,29.12c-7.78,7.78-18.12,12.06-29.12,12.06v13.73c30.32,0,54.91-24.58,54.91-54.91
			C232.5,125.29,207.92,100.71,177.59,100.71z"/>
	</g>
	<g>
		<path class="st6" d="M206.71,126.5c-7.78-7.78-18.12-12.06-29.12-12.06v6.86c9.16,0,17.78,3.57,24.27,10.05
			c6.48,6.48,10.05,15.1,10.05,24.27c0,9.17-3.57,17.78-10.05,24.27c-6.48,6.48-15.1,10.05-24.27,10.05h-54.91v6.86h54.91
			c11,0,21.34-4.28,29.12-12.06c7.78-7.78,12.06-18.12,12.06-29.12C218.77,144.61,214.49,134.27,206.71,126.5z"/>
	</g>
	<g>
		<path class="st6" d="M182.95,125.59c0,1.42-1.16,2.57-2.57,2.57h-22.31c-1.42,0-2.57-1.16-2.57-2.57V93.2
			c0-1.42,1.16-2.57,2.57-2.57h22.31c1.41,0,2.57,1.16,2.57,2.57V125.59z"/>
	</g>
	<g>
		
			<ellipse transform="matrix(0.2298 -0.9732 0.9732 0.2298 9.4151 268.2176)" class="st5" cx="174.16" cy="128.16" rx="6.01" ry="6.01"/>
	</g>
	<g>
		<path class="st6" d="M132.77,73.26c-1.42,0-2.57,1.16-2.57,2.57v77.21c0,1.42,1.16,2.57,2.57,2.57h10.7V73.26H132.77z"/>
	</g>
	<g>
		<path class="st5" d="M155.07,73.26h-11.61v82.36h11.61c1.42,0,2.57-1.16,2.57-2.57V75.83C157.65,74.41,156.49,73.26,155.07,73.26z
			"/>
	</g>
	<g>
		
			<ellipse transform="matrix(0.1602 -0.9871 0.9871 0.1602 34.8228 249.2081)" class="st6" cx="163.87" cy="104.14" rx="10.3" ry="10.3"/>
	</g>
	<g>
		<path class="st5" d="M167.3,104.14c0,1.9-1.54,3.43-3.43,3.43s-3.43-1.54-3.43-3.43c0-1.9,1.54-3.43,3.43-3.43
			S167.3,102.24,167.3,104.14z"/>
	</g>
</g>
<circle class="st8" cx="159.65" cy="159.65" r="159.4"/>
</svg>
