<?xml version="1.0" encoding="utf-8"?>
<!-- Generator: Adobe Illustrator 25.4.1, SVG Export Plug-In . SVG Version: 6.00 Build 0)  -->
<svg version="1.1" id="Layer_1" xmlns="http://www.w3.org/2000/svg" xmlns:xlink="http://www.w3.org/1999/xlink" x="0px" y="0px"
	 viewBox="0 0 347.56 327.93" style="enable-background:new 0 0 347.56 327.93;" xml:space="preserve">
<style type="text/css">
	.st0{fill:#968457;}
	.st1{fill:none;stroke:#FFFFFF;stroke-width:0.5;stroke-miterlimit:10;}
	.st2{opacity:0.15;}
	.st3{fill:#FFFFFF;}
	.st4{fill:#242C3C;}
	.st5{fill:none;stroke:#D9D4C5;stroke-width:0.5;stroke-miterlimit:10;}
</style>
<circle class="st0" cx="177.59" cy="165.43" r="162.5"/>
<circle class="st1" cx="187.91" cy="166.97" r="159.4"/>
<g class="st2">
	<path d="M340.04,169.5l-71.77-71.77l-1.4,1.4l-6.41-6.41l-5.48-0.17l-27.12-27.12L116.65,70.5l4.52,106.16l-30.49-0.38l-2.64,86.21
		l63.3,63.3c8.55,1.39,17.31,2.12,26.25,2.12C265.98,327.93,337.88,257.36,340.04,169.5z"/>
</g>
<g>
	<g>
		<rect x="106.55" y="65.43" class="st3" width="121.31" height="181.96"/>
	</g>
	<g>
		<g>
			<rect x="251.75" y="143.49" class="st4" width="10.29" height="68.44"/>
		</g>
		<g>
			<path class="st4" d="M262.04,212.03l-10.29,0c0,2.75,0.41,5.36,1.14,7.75h8.01C261.64,217.39,262.04,214.77,262.04,212.03z"/>
		</g>
		<g>
			<rect x="250.53" y="97.25" class="st4" width="12.73" height="46.24"/>
		</g>
		<g>
			<path class="st4" d="M263.26,97.25c0,3.52-2.85,6.36-6.36,6.36c-3.51,0-6.36-2.85-6.36-6.36c0-3.52,2.85-6.36,6.36-6.36
				C260.41,90.89,263.26,93.74,263.26,97.25z"/>
		</g>
		<g>
			<polygon class="st4" points="266.37,97.73 258.79,97.73 260.69,99.62 266.37,99.62 266.37,137.06 266.37,138.95 268.27,138.95 
				268.27,97.73 			"/>
		</g>
		<g>
			<path class="st3" d="M259.52,223.28l-5.25,0c0.74,1.51,1.62,2.89,2.62,4.08C257.9,226.16,258.78,224.79,259.52,223.28z"/>
		</g>
		<g>
			<path class="st4" d="M260.9,219.78h-8.01c0.38,1.23,0.84,2.4,1.38,3.5l5.25,0C260.06,222.18,260.53,221.01,260.9,219.78z"/>
		</g>
	</g>
	<g>
		<rect x="86.91" y="174.13" class="st4" width="45.49" height="91.3"/>
	</g>
	<g>
		<g>
			<g>
				<rect x="121.71" y="116.58" class="st4" width="90.98" height="7.58"/>
			</g>
		</g>
		<g>
			<g>
				<rect x="121.71" y="131.74" class="st4" width="60.65" height="7.58"/>
			</g>
		</g>
		<g>
			<g>
				<rect x="121.71" y="101.41" class="st4" width="90.98" height="7.58"/>
			</g>
		</g>
	</g>
</g>
<circle class="st5" cx="159.65" cy="159.65" r="159.4"/>
</svg>
