<?xml version="1.0" encoding="utf-8"?>
<!-- Generator: Adobe Illustrator 25.4.1, SVG Export Plug-In . SVG Version: 6.00 Build 0)  -->
<svg version="1.1" id="Layer_1" xmlns="http://www.w3.org/2000/svg" xmlns:xlink="http://www.w3.org/1999/xlink" x="0px" y="0px"
	 viewBox="0 0 347.56 327.93" style="enable-background:new 0 0 347.56 327.93;" xml:space="preserve">
<style type="text/css">
	.st0{fill:#749657;}
	.st1{fill:none;stroke:#FFFFFF;stroke-width:0.5;stroke-miterlimit:10;}
	.st2{opacity:0.15;}
	.st3{fill:#242C3C;}
	.st4{fill:#2B3A49;}
	.st5{fill:#6DBEC4;}
	.st6{opacity:0.4;}
	.st7{fill:#FFFFFF;}
	.st8{fill:none;stroke:#D9D4C5;stroke-width:0.5;stroke-miterlimit:10;}
</style>
<circle class="st0" cx="177.38" cy="165.43" r="162.5"/>
<circle class="st1" cx="187.91" cy="166.97" r="159.4"/>
<g class="st2">
	<path d="M331.6,216.75l-70.57-70.57l-167.72,4.52l-9.6,54.21l120.76,120.76C264.2,315.64,312.88,273.04,331.6,216.75z"/>
</g>
<g>
	<g>
		<path class="st3" d="M245.76,138.35c-2.56-5.07-6.59-9.29-11.51-12.08c-1.65-10.2-10.49-17.99-21.15-17.99
			c-9.33,0-17.26,5.96-20.2,14.29h-5.41c0,5.58-4.52,10.1-10.1,10.1c-5.58,0-10.09-4.52-10.09-10.1h-5.42
			c-2.94-8.32-10.87-14.29-20.2-14.29c-10.66,0-19.5,7.79-21.15,17.99c-4.93,2.8-8.95,7.01-11.51,12.08
			c-18.22,4.94-31.62,21.58-31.62,41.36c0,23.67,19.19,42.86,42.86,42.86c18.66,0,34.52-11.93,40.41-28.57h33.47
			c5.89,16.64,21.75,28.57,40.41,28.57c23.67,0,42.86-19.19,42.86-42.86C277.38,159.93,263.98,143.29,245.76,138.35z"/>
	</g>
	<g>
		<g>
			<path class="st3" d="M234.25,126.27c-1.65-10.2-10.49-17.99-21.15-17.99c-9.33,0-17.26,5.96-20.2,14.29h27.35
				C225.32,122.57,230.1,123.92,234.25,126.27z"/>
		</g>
		<g>
			<path class="st3" d="M161.87,122.57c-2.94-8.32-10.87-14.29-20.2-14.29c-10.66,0-19.5,7.79-21.15,17.99
				c4.15-2.35,8.93-3.7,14.01-3.7H161.87z"/>
		</g>
		<g>
			<path class="st4" d="M160.65,165.43h33.47c5.89-16.64,21.75-28.57,40.41-28.57c3.89,0,7.66,0.53,11.24,1.5
				c-2.56-5.07-6.59-9.29-11.51-12.08c-4.15-2.35-8.93-3.7-14.01-3.7h-27.35h-5.41c0,5.58-4.52,10.1-10.1,10.1
				c-5.58,0-10.09-4.52-10.09-10.1h-5.42h-27.35c-5.08,0-9.86,1.35-14.01,3.7c-4.93,2.8-8.95,7.01-11.51,12.08
				c3.58-0.97,7.35-1.5,11.24-1.5C138.9,136.85,154.76,148.78,160.65,165.43z"/>
		</g>
		<g>
			<path class="st3" d="M194.11,165.43h-33.47c1.58,4.47,2.45,9.28,2.45,14.29c0,5.01-0.87,9.82-2.45,14.29h33.47
				c-1.58-4.47-2.45-9.28-2.45-14.29C191.67,174.7,192.53,169.9,194.11,165.43z"/>
		</g>
		<g>
			<path class="st4" d="M120.24,144c-19.69,0-35.71,16.02-35.71,35.71c0,19.69,16.02,35.71,35.71,35.71
				c19.69,0,35.71-16.02,35.71-35.71C155.95,160.02,139.93,144,120.24,144z M120.24,208.28c-15.78,0-28.57-12.79-28.57-28.57
				c0-15.78,12.79-28.57,28.57-28.57c15.78,0,28.57,12.79,28.57,28.57C148.81,195.49,136.02,208.28,120.24,208.28z"/>
		</g>
		<g>
			<path class="st4" d="M234.52,144c-19.69,0-35.71,16.02-35.71,35.71c0,19.69,16.02,35.71,35.71,35.71
				c19.69,0,35.71-16.02,35.71-35.71C270.24,160.02,254.22,144,234.52,144z M234.52,208.28c-15.78,0-28.57-12.79-28.57-28.57
				c0-15.78,12.79-28.57,28.57-28.57c15.78,0,28.57,12.79,28.57,28.57C263.1,195.49,250.3,208.28,234.52,208.28z"/>
		</g>
		<g>
			<circle class="st5" cx="234.52" cy="179.71" r="28.57"/>
		</g>
		<g>
			<circle class="st5" cx="120.24" cy="179.71" r="28.57"/>
		</g>
		<g>
			<path class="st3" d="M160.65,165.43c-5.88-16.64-21.75-28.57-40.41-28.57c-3.89,0-7.65,0.53-11.24,1.5
				c-18.22,4.94-31.62,21.58-31.62,41.36c0,23.67,19.19,42.86,42.86,42.86c18.66,0,34.52-11.93,40.41-28.57
				c1.58-4.47,2.45-9.28,2.45-14.29C163.1,174.7,162.23,169.9,160.65,165.43z M120.24,215.43c-19.69,0-35.71-16.02-35.71-35.71
				c0-19.69,16.02-35.71,35.71-35.71c19.69,0,35.71,16.02,35.71,35.71C155.95,199.41,139.93,215.43,120.24,215.43z"/>
		</g>
		<g>
			<path class="st3" d="M245.76,138.35c-3.58-0.97-7.35-1.5-11.24-1.5c-18.66,0-34.52,11.93-40.41,28.57
				c-1.58,4.47-2.45,9.28-2.45,14.29c0,5.01,0.87,9.82,2.45,14.29c5.89,16.64,21.75,28.57,40.41,28.57
				c23.67,0,42.86-19.19,42.86-42.86C277.38,159.93,263.98,143.29,245.76,138.35z M234.52,215.43c-19.69,0-35.71-16.02-35.71-35.71
				c0-19.69,16.02-35.71,35.71-35.71c19.69,0,35.71,16.02,35.71,35.71C270.24,199.41,254.22,215.43,234.52,215.43z"/>
		</g>
		<g class="st6">
			<circle class="st7" cx="109.52" cy="171.97" r="10.71"/>
		</g>
		<g class="st6">
			<circle class="st7" cx="223.81" cy="171.97" r="10.71"/>
		</g>
	</g>
</g>
<circle class="st8" cx="159.65" cy="159.65" r="159.4"/>
</svg>
